<svg height="512pt" viewBox="-12 0 512 512.00001" width="512pt" xmlns="http://www.w3.org/2000/svg"><path d="m91.238281 497.234375h-74.640625c-5.023437 0-9.097656-4.074219-9.097656-9.097656v-414.8125c0-5.023438 4.074219-9.097657 9.097656-9.097657h74.640625c5.023438 0 9.097657 4.074219 9.097657 9.097657v414.8125c0 5.023437-4.074219 9.097656-9.097657 9.097656zm0 0" fill="#76ffd9"/><path d="m40.335938 64.230469v433.003906h-23.742188c-5.027344 0-9.09375-4.078125-9.09375-9.101563v-414.808593c0-5.027344 4.066406-9.09375 9.09375-9.09375zm0 0" fill="#fff"/><path d="m100.339844 375.03125v113.101562c0 5.023438-4.078125 9.101563-9.101563 9.101563h-74.648437c-1.253906 0-2.445313-.253906-3.542969-.710937-.265625-.117188-.523437-.246094-.78125-.382813-2.839844-1.539063-4.765625-4.550781-4.765625-8.007813v-113.101562zm0 0" fill="#ffb400"/><path d="m40.335938 375.03125v122.203125h-23.746094c-1.253906 0-2.445313-.257813-3.542969-.710937-.265625-.117188-.523437-.246094-.78125-.382813-2.839844-1.542969-4.765625-4.550781-4.765625-8.007813v-113.101562zm0 0" fill="#ffc843"/><path d="m242.0625 73.324219v414.808593c0 5.023438-4.066406 9.101563-9.09375 9.101563h-123.535156c-5.023438 0-9.09375-4.078125-9.09375-9.101563v-414.808593c0-5.027344 4.066406-9.09375 9.09375-9.09375h123.535156c5.027344 0 9.09375 4.066406 9.09375 9.09375zm0 0" fill="#ffb400"/><path d="m133.175781 64.230469v433.003906h-23.742187c-5.023438 0-9.09375-4.078125-9.09375-9.101563v-414.808593c0-5.027344 4.066406-9.09375 9.09375-9.09375zm0 0" fill="#ffc843"/><path d="m242.0625 375.03125v113.101562c0 5.023438-4.066406 9.101563-9.09375 9.101563h-123.535156c-5.023438 0-9.09375-4.078125-9.09375-9.101563v-113.101562zm0 0" fill="#76ffd9"/><path d="m133.175781 375.03125v122.203125h-23.742187c-5.023438 0-9.09375-4.078125-9.09375-9.101563v-113.101562zm0 0" fill="#fff"/><path d="m100.335938 343.375h141.730468v31.65625h-141.730468zm0 0" fill="#e1eaf8"/><path d="m133.175781 99.007812h41.148438v206.382813h-41.148438zm0 0" fill="#fff"/><path d="m384.421875 64.585938 67.175781 409.335937c.8125 4.957031-2.539062 9.640625-7.5 10.453125l-121.90625 20.007812c-4.960937.8125-9.632812-2.554687-10.445312-7.511718l-67.175782-409.335938c-.8125-4.957031 2.542969-9.628906 7.5-10.445312l121.90625-20.003906c4.960938-.816407 9.632813 2.542968 10.445313 7.5zm0 0" fill="#ffb400"/><path d="m275.503906 73.246094 70.117188 427.289062-23.429688 3.847656c-4.957031.8125-9.632812-2.554687-10.445312-7.511718l-67.175782-409.335938c-.8125-4.957031 2.542969-9.628906 7.5-10.445312zm0 0" fill="#ffc843"/><path d="m433.28125 362.3125 18.316406 111.609375c.8125 4.957031-2.539062 9.640625-7.5 10.453125l-121.90625 20.007812c-4.960937.8125-9.632812-2.554687-10.445312-7.511718l-18.316406-111.609375zm0 0" fill="#76ffd9"/><path d="m325.832031 379.945312 19.789063 120.589844-23.429688 3.84375c-4.957031.816406-9.632812-2.550781-10.445312-7.507812l-18.316406-111.609375zm0 0" fill="#fff"/><path d="m288.285156 354.035156 139.859375-22.945312 5.125 31.234375-139.859375 22.949219zm0 0" fill="#e1eaf8"/><path d="m281.128906 107.574219 40.605469-6.660157 33.414063 203.660157-40.605469 6.660156zm0 0" fill="#fff"/><path d="m53.917969 397.917969c-4.144531 0-7.5 3.355469-7.5 7.5v62.675781c0 4.140625 3.355469 7.5 7.5 7.5s7.5-3.359375 7.5-7.5v-62.675781c0-4.144531-3.355469-7.5-7.5-7.5zm0 0" fill="#ff8025"/><g fill="#00c395"><path d="m38.214844 324.917969c4.140625 0 7.5-3.355469 7.5-7.5v-197.519531c0-4.144532-3.359375-7.5-7.5-7.5-4.144532 0-7.5 3.355468-7.5 7.5v197.519531c0 4.144531 3.355468 7.5 7.5 7.5zm0 0"/><path d="m69.234375 324.917969c4.144531 0 7.5-3.355469 7.5-7.5v-197.519531c0-4.144532-3.355469-7.5-7.5-7.5s-7.5 3.355468-7.5 7.5v197.519531c0 4.144531 3.359375 7.5 7.5 7.5zm0 0"/><path d="m216.644531 409.847656c0-4.140625-3.355469-7.5-7.5-7.5h-75.96875c-4.144531 0-7.5 3.359375-7.5 7.5 0 4.144532 3.355469 7.503906 7.5 7.503906h75.96875c4.144531 0 7.5-3.359374 7.5-7.503906zm0 0"/><path d="m199.648438 430.203125h-56.976563c-4.144531 0-7.5 3.359375-7.5 7.5 0 4.144531 3.355469 7.5 7.5 7.5h56.976563c4.144531 0 7.5-3.355469 7.5-7.5 0-4.140625-3.355469-7.5-7.5-7.5zm0 0"/><path d="m199.648438 457.425781h-56.976563c-4.144531 0-7.5 3.359375-7.5 7.5 0 4.144531 3.355469 7.5 7.5 7.5h56.976563c4.144531 0 7.5-3.355469 7.5-7.5 0-4.140625-3.355469-7.5-7.5-7.5zm0 0"/></g><path d="m204.082031 194.503906c4.140625 0 7.5-3.355468 7.5-7.5v-87.996094c0-4.144531-3.359375-7.5-7.5-7.5-4.144531 0-7.5 3.355469-7.5 7.5v87.996094c0 4.144532 3.355469 7.5 7.5 7.5zm0 0" fill="#ff8025"/><path d="m459 472.707031-32.496094-198.03125c-.671875-4.085937-4.523437-6.851562-8.617187-6.1875-4.085938.671875-6.855469 4.527344-6.1875 8.617188l32.5 198.03125c.140625.871093-.449219 1.691406-1.320313 1.835937l-121.898437 20.003906c-.871094.152344-1.695313-.445312-1.835938-1.316406l-67.175781-409.335937c-.144531-.871094.449219-1.691407 1.316406-1.835938l121.90625-20.003906c.871094-.140625 1.691406.449219 1.832032 1.316406l30.257812 184.386719c.671875 4.085938 4.53125 6.855469 8.617188 6.1875 4.085937-.671875 6.855468-4.527344 6.1875-8.617188l-30.257813-184.386718c-1.484375-9.03125-10.035156-15.167969-19.066406-13.6875l-121.90625 20.003906c-.550781.089844-1.089844.207031-1.621094.351562-1.53125-7.582031-8.242187-13.3125-16.265625-13.3125h-123.535156c-3.359375 0-6.480469 1.011719-9.097656 2.734376-2.613282-1.722657-5.738282-2.734376-9.097657-2.734376h-74.640625c-9.152344 0-16.597656 7.445313-16.597656 16.601563v414.808594c0 9.152343 7.445312 16.597656 16.597656 16.597656h74.640625c3.359375 0 6.484375-1.007813 9.097657-2.730469 2.617187 1.722656 5.742187 2.730469 9.097656 2.730469h123.535156c9.152344 0 16.597656-7.445313 16.597656-16.597656v-36.539063c0-4.144531-3.355468-7.5-7.5-7.5-4.140625 0-7.5 3.355469-7.5 7.5v36.539063c0 .882812-.714844 1.597656-1.597656 1.597656h-123.535156c-.878906 0-1.597656-.714844-1.597656-1.597656v-414.8125c0-.878907.71875-1.597657 1.597656-1.597657h123.535156c.878906 0 1.597656.71875 1.597656 1.597657v348.675781c0 4.144531 3.355469 7.5 7.5 7.5 4.140625 0 7.5-3.355469 7.5-7.5v-257.6875l31.332032 190.921875v.007813.003906l5.125 31.226562v.003906.003907l18.316406 111.609375c1.332031 8.125 8.390625 13.910156 16.371094 13.910156.886718 0 1.789062-.070312 2.695312-.21875l121.902344-20.007812c9.03125-1.484376 15.175781-10.035157 13.691406-19.066407zm-366.164062 15.429688c0 .878906-.714844 1.597656-1.597657 1.597656h-74.640625c-.878906 0-1.597656-.71875-1.597656-1.597656v-414.8125c0-.878907.71875-1.597657 1.597656-1.597657h74.640625c.882813 0 1.597657.71875 1.597657 1.597657zm0 0" fill="#434c54"/><path d="m405.222656 394.597656-74.96875 12.304688c-4.085937.671875-6.855468 4.527344-6.1875 8.617187.605469 3.675781 3.785156 6.285157 7.394532 6.285157.402343 0 .8125-.03125 1.222656-.101563l74.96875-12.300781c4.085937-.671875 6.855468-4.53125 6.1875-8.617188-.671875-4.085937-4.527344-6.855468-8.617188-6.1875zm0 0" fill="#00c395"/><path d="m346.566406 447.652344 56.226563-9.226563c4.085937-.671875 6.855469-4.527343 6.1875-8.613281-.671875-4.085938-4.523438-6.859375-8.617188-6.1875l-56.226562 9.226562c-4.085938.671876-6.855469 4.527344-6.1875 8.613282.605469 3.679687 3.785156 6.289062 7.394531 6.289062.402344 0 .8125-.03125 1.222656-.101562zm0 0" fill="#00c395"/><path d="m404.769531 450.488281-56.222656 9.226563c-4.089844.671875-6.859375 4.527344-6.1875 8.617187.601563 3.675781 3.78125 6.285157 7.390625 6.285157.40625 0 .8125-.03125 1.226562-.101563l56.222657-9.226563c4.089843-.671874 6.859375-4.527343 6.1875-8.617187-.671875-4.085937-4.527344-6.851563-8.617188-6.183594zm0 0" fill="#00c395"/><path d="m366.566406 190.316406c4.085938-.667968 6.855469-4.527344 6.1875-8.613281l-14.25-86.835937c-.671875-4.085938-4.523437-6.859376-8.617187-6.1875-4.085938.667968-6.855469 4.527343-6.1875 8.613281l14.25 86.835937c.605469 3.679688 3.785156 6.289063 7.394531 6.289063.402344 0 .8125-.03125 1.222656-.101563zm0 0" fill="#ff8025"/><path d="m324.683594 29.332031h6.832031v6.832031c0 4.140626 3.355469 7.5 7.5 7.5 4.140625 0 7.5-3.359374 7.5-7.5v-6.832031h6.828125c4.144531 0 7.5-3.359375 7.5-7.5 0-4.144531-3.355469-7.5-7.5-7.5h-6.828125v-6.832031c0-4.144531-3.359375-7.5-7.5-7.5-4.144531 0-7.5 3.355469-7.5 7.5v6.832031h-6.832031c-4.140625 0-7.5 3.355469-7.5 7.5 0 4.140625 3.359375 7.5 7.5 7.5zm0 0" fill="#ffc843"/><path d="m418.953125 64.464844h6.832031v6.832031c0 4.140625 3.355469 7.5 7.5 7.5 4.140625 0 7.5-3.359375 7.5-7.5v-6.832031h6.828125c4.144531 0 7.5-3.359375 7.5-7.5 0-4.144532-3.355469-7.5-7.5-7.5h-6.828125v-6.832032c0-4.144531-3.359375-7.5-7.5-7.5-4.144531 0-7.5 3.355469-7.5 7.5v6.832032h-6.832031c-4.144531 0-7.5 3.355468-7.5 7.5 0 4.140625 3.359375 7.5 7.5 7.5zm0 0" fill="#ffc843"/><path d="m480.832031 105.835938h-6.832031v-6.828126c0-4.144531-3.355469-7.5-7.5-7.5-4.140625 0-7.5 3.355469-7.5 7.5v6.828126h-6.832031c-4.140625 0-7.5 3.359374-7.5 7.5 0 4.144531 3.359375 7.5 7.5 7.5h6.832031v6.832031c0 4.140625 3.359375 7.5 7.5 7.5 4.144531 0 7.5-3.359375 7.5-7.5v-6.832031h6.832031c4.144531 0 7.5-3.355469 7.5-7.5 0-4.140626-3.355469-7.5-7.5-7.5zm0 0" fill="#ffc843"/></svg>